<?xml version="1.0" encoding="UTF-8"?><svg id="a" xmlns="http://www.w3.org/2000/svg" viewBox="0 0 200 200"><g><ellipse cx="88.15" cy="99.43" rx="65.07" ry="92.77" style="fill:none; stroke:#fff; stroke-miterlimit:10; stroke-width:3.35px;"/><ellipse cx="88.15" cy="99.43" rx="53.03" ry="80.42" style="fill:none; stroke:#fff; stroke-dasharray:0 0 14.87 7.43; stroke-linecap:round; stroke-miterlimit:10; stroke-width:3.35px;"/><path d="M97.05,7.5c.52-.15,1.04-.3,1.57-.44,3.85-1,7.82-1.52,11.87-1.52,36.36,0,65.84,42.03,65.84,93.88s-29.48,93.88-65.84,93.88c-4.34,0-8.58-.6-12.68-1.74-.61-.17-1.22-.35-1.83-.55" style="fill:none; stroke:#fff; stroke-miterlimit:10; stroke-width:3.35px;"/><line x1="136.75" y1="37.05" x2="158.92" y2="37.05" style="fill:none; stroke:#fff; stroke-linecap:round; stroke-miterlimit:10; stroke-width:3.35px;"/><line x1="150.05" y1="69.03" x2="172.85" y2="69.03" style="fill:none; stroke:#fff; stroke-linecap:round; stroke-miterlimit:10; stroke-width:3.35px;"/><line x1="153.85" y1="100.69" x2="176.33" y2="100.69" style="fill:none; stroke:#fff; stroke-linecap:round; stroke-miterlimit:10; stroke-width:3.35px;"/><line x1="149.1" y1="132.35" x2="172.53" y2="132.35" style="fill:none; stroke:#fff; stroke-linecap:round; stroke-miterlimit:10; stroke-width:3.35px;"/><line x1="134.54" y1="163.38" x2="159.23" y2="163.38" style="fill:none; stroke:#fff; stroke-linecap:round; stroke-miterlimit:10; stroke-width:3.35px;"/></g><g><path d="M62.14,134.69l-.9-70.18,16.04-.21c7.34-.09,13.17,.2,17.48,.89,4.32,.69,8.09,1.9,11.3,3.63,3.21,1.74,6.04,4.09,8.48,7.05,2.44,2.96,4.21,6.22,5.31,9.78,1.1,3.56,1.68,7.65,1.74,12.29s-.44,9.21-1.51,13.12c-1.07,3.91-2.72,7.38-4.95,10.4s-4.78,5.43-7.66,7.21c-2.87,1.78-6.87,3.25-11.99,4.4-3.61,.84-8.38,1.29-14.3,1.37l-19.05,.24Zm13.4-59.6l.62,48.42c1.25,.12,2.48,.17,3.7,.15,3.85-.05,7.4-.51,10.64-1.37,2.39-.62,4.46-1.49,6.19-2.6,1.73-1.11,3.39-2.64,4.98-4.6,1.59-1.96,2.84-4.35,3.76-7.16,.92-2.81,1.36-5.84,1.31-9.1-.04-3.13-.51-6.01-1.4-8.65-.89-2.64-2.19-5.01-3.89-7.11-1.71-2.1-3.6-3.72-5.69-4.86s-4.61-1.97-7.56-2.49c-2.95-.52-7.18-.73-12.67-.63Z" style="fill:#fff;"/><g><rect x="80.27" y="136.7" width="20.66" height="3.71" transform="translate(227.14 44.93) rotate(88.74)" style="fill:#fff;"/><rect x="70.99" y="136.9" width="20.66" height="3.71" transform="translate(218.26 54.41) rotate(88.74)" style="fill:#fff;"/></g><g><rect x="82.43" y="58.24" width="20.66" height="3.71" transform="translate(150.81 -33.97) rotate(88.74)" style="fill:#fff;"/><rect x="73.15" y="58.44" width="20.66" height="3.71" transform="translate(141.94 -24.49) rotate(88.74)" style="fill:#fff;"/></g></g></svg>