<?xml version="1.0" encoding="UTF-8"?><svg id="a" xmlns="http://www.w3.org/2000/svg" viewBox="0 0 50 50"><g><ellipse cx="21.9" cy="24.43" rx="15.83" ry="22.57" style="fill:none; stroke:#fff; stroke-miterlimit:10; stroke-width:.82px;"/><ellipse cx="21.9" cy="24.43" rx="12.9" ry="19.56" style="fill:none; stroke:#fff; stroke-dasharray:0 0 3.62 1.81; stroke-linecap:round; stroke-miterlimit:10; stroke-width:.82px;"/><path d="M24.06,2.06c.13-.04,.25-.07,.38-.11,.94-.24,1.9-.37,2.89-.37,8.85,0,16.02,10.22,16.02,22.84s-7.17,22.84-16.02,22.84c-1.06,0-2.09-.15-3.08-.42-.15-.04-.3-.09-.44-.13" style="fill:none; stroke:#fff; stroke-miterlimit:10; stroke-width:.82px;"/><line x1="33.72" y1="9.25" x2="39.11" y2="9.25" style="fill:none; stroke:#fff; stroke-linecap:round; stroke-miterlimit:10; stroke-width:.82px;"/><line x1="36.96" y1="17.03" x2="42.5" y2="17.03" style="fill:none; stroke:#fff; stroke-linecap:round; stroke-miterlimit:10; stroke-width:.82px;"/><line x1="37.88" y1="24.73" x2="43.35" y2="24.73" style="fill:none; stroke:#fff; stroke-linecap:round; stroke-miterlimit:10; stroke-width:.82px;"/><line x1="36.72" y1="32.44" x2="42.42" y2="32.44" style="fill:none; stroke:#fff; stroke-linecap:round; stroke-miterlimit:10; stroke-width:.82px;"/><line x1="33.18" y1="39.98" x2="39.19" y2="39.98" style="fill:none; stroke:#fff; stroke-linecap:round; stroke-miterlimit:10; stroke-width:.82px;"/></g><g><path d="M15.57,33l-.22-17.07,3.9-.05c1.78-.02,3.2,.05,4.25,.22,1.05,.17,1.97,.46,2.75,.88s1.47,.99,2.06,1.71c.59,.72,1.02,1.51,1.29,2.38,.27,.87,.41,1.86,.42,2.99s-.11,2.24-.37,3.19-.66,1.8-1.2,2.53-1.16,1.32-1.86,1.75-1.67,.79-2.92,1.07c-.88,.2-2.04,.31-3.48,.33l-4.63,.06Zm3.26-14.5l.15,11.78c.3,.03,.6,.04,.9,.04,.94-.01,1.8-.12,2.59-.33,.58-.15,1.08-.36,1.51-.63,.42-.27,.82-.64,1.21-1.12,.39-.48,.69-1.06,.91-1.74,.22-.68,.33-1.42,.32-2.21s-.12-1.46-.34-2.1c-.22-.64-.53-1.22-.95-1.73-.41-.51-.88-.91-1.38-1.18s-1.12-.48-1.84-.61c-.72-.13-1.75-.18-3.08-.15Z" style="fill:#fff;"/><g><rect x="19.98" y="33.49" width="5.03" height=".9" transform="translate(55.94 10.71) rotate(88.74)" style="fill:#fff;"/><rect x="17.72" y="33.54" width="5.03" height=".9" transform="translate(53.78 13.02) rotate(88.74)" style="fill:#fff;"/></g><g><rect x="20.51" y="14.41" width="5.03" height=".9" transform="translate(37.37 -8.48) rotate(88.74)" style="fill:#fff;"/><rect x="18.25" y="14.45" width="5.03" height=".9" transform="translate(35.21 -6.18) rotate(88.74)" style="fill:#fff;"/></g></g></svg>