<?xml version="1.0" encoding="UTF-8"?><svg id="a" xmlns="http://www.w3.org/2000/svg" viewBox="0 0 150 150"><g><ellipse cx="66.07" cy="74.43" rx="48.65" ry="69.37" style="fill:none; stroke:#fff; stroke-miterlimit:10; stroke-width:2.51px;"/><ellipse cx="66.07" cy="74.43" rx="39.66" ry="60.13" style="fill:none; stroke:#fff; stroke-dasharray:0 0 11.11 5.56; stroke-linecap:round; stroke-miterlimit:10; stroke-width:2.51px;"/><path d="M72.72,5.69c.39-.12,.78-.22,1.17-.33,2.88-.75,5.84-1.14,8.87-1.14,27.19,0,49.23,31.43,49.23,70.2s-22.04,70.2-49.23,70.2c-3.24,0-6.41-.45-9.48-1.3-.46-.13-.91-.26-1.37-.41" style="fill:none; stroke:#fff; stroke-miterlimit:10; stroke-width:2.51px;"/><line x1="102.41" y1="27.79" x2="118.98" y2="27.79" style="fill:none; stroke:#fff; stroke-linecap:round; stroke-miterlimit:10; stroke-width:2.51px;"/><line x1="112.35" y1="51.7" x2="129.4" y2="51.7" style="fill:none; stroke:#fff; stroke-linecap:round; stroke-miterlimit:10; stroke-width:2.51px;"/><line x1="115.19" y1="75.37" x2="132" y2="75.37" style="fill:none; stroke:#fff; stroke-linecap:round; stroke-miterlimit:10; stroke-width:2.51px;"/><line x1="111.64" y1="99.05" x2="129.16" y2="99.05" style="fill:none; stroke:#fff; stroke-linecap:round; stroke-miterlimit:10; stroke-width:2.51px;"/><line x1="100.75" y1="122.25" x2="119.22" y2="122.25" style="fill:none; stroke:#fff; stroke-linecap:round; stroke-miterlimit:10; stroke-width:2.51px;"/></g><g><path d="M46.62,100.8l-.67-52.48,11.99-.15c5.49-.07,9.84,.15,13.07,.66,3.23,.51,6.05,1.42,8.45,2.72s4.52,3.06,6.34,5.27c1.82,2.22,3.15,4.65,3.97,7.31,.82,2.66,1.25,5.72,1.3,9.19s-.33,6.89-1.13,9.81c-.8,2.93-2.03,5.52-3.7,7.78s-3.58,4.06-5.73,5.39c-2.15,1.33-5.14,2.43-8.96,3.29-2.7,.63-6.26,.97-10.69,1.02l-14.24,.18Zm10.02-44.57l.46,36.2c.94,.09,1.86,.12,2.77,.11,2.88-.04,5.53-.38,7.96-1.02,1.79-.47,3.33-1.11,4.63-1.94,1.29-.83,2.53-1.98,3.72-3.44,1.19-1.47,2.12-3.25,2.81-5.35,.69-2.1,1.01-4.37,.98-6.8-.03-2.34-.38-4.49-1.04-6.46-.66-1.97-1.63-3.74-2.91-5.31-1.28-1.57-2.69-2.78-4.26-3.64s-3.45-1.47-5.65-1.87c-2.21-.39-5.37-.55-9.47-.47Z" style="fill:#fff;"/><g><rect x="60.18" y="102.29" width="15.45" height="2.78" transform="translate(170.07 33.52) rotate(88.74)" style="fill:#fff;"/><rect x="53.24" y="102.45" width="15.45" height="2.78" transform="translate(163.44 40.61) rotate(88.74)" style="fill:#fff;"/></g><g><rect x="61.79" y="43.63" width="15.45" height="2.78" transform="translate(113 -25.47) rotate(88.74)" style="fill:#fff;"/><rect x="54.85" y="43.78" width="15.45" height="2.78" transform="translate(106.36 -18.39) rotate(88.74)" style="fill:#fff;"/></g></g></svg>