<?xml version="1.0" encoding="UTF-8"?><svg id="a" xmlns="http://www.w3.org/2000/svg" viewBox="0 0 100 100"><g><ellipse cx="44.02" cy="49.43" rx="32.01" ry="45.65" style="fill:none; stroke:#fff; stroke-miterlimit:10; stroke-width:1.65px;"/><ellipse cx="44.02" cy="49.43" rx="26.09" ry="39.57" style="fill:none; stroke:#fff; stroke-dasharray:0 0 7.31 3.66; stroke-linecap:round; stroke-miterlimit:10; stroke-width:1.65px;"/><path d="M48.4,4.2c.26-.08,.51-.15,.77-.21,1.89-.49,3.85-.75,5.84-.75,17.89,0,32.4,20.68,32.4,46.19s-14.5,46.19-32.4,46.19c-2.13,0-4.22-.29-6.24-.86-.3-.08-.6-.17-.9-.27" style="fill:none; stroke:#fff; stroke-miterlimit:10; stroke-width:1.65px;"/><line x1="67.94" y1="18.73" x2="78.84" y2="18.73" style="fill:none; stroke:#fff; stroke-linecap:round; stroke-miterlimit:10; stroke-width:1.65px;"/><line x1="74.48" y1="34.47" x2="85.7" y2="34.47" style="fill:none; stroke:#fff; stroke-linecap:round; stroke-miterlimit:10; stroke-width:1.65px;"/><line x1="76.35" y1="50.05" x2="87.41" y2="50.05" style="fill:none; stroke:#fff; stroke-linecap:round; stroke-miterlimit:10; stroke-width:1.65px;"/><line x1="74.01" y1="65.63" x2="85.54" y2="65.63" style="fill:none; stroke:#fff; stroke-linecap:round; stroke-miterlimit:10; stroke-width:1.65px;"/><line x1="66.85" y1="80.89" x2="79" y2="80.89" style="fill:none; stroke:#fff; stroke-linecap:round; stroke-miterlimit:10; stroke-width:1.65px;"/></g><g><path d="M31.22,66.78l-.44-34.53,7.89-.1c3.61-.05,6.48,.1,8.6,.44,2.13,.34,3.98,.93,5.56,1.79s2.97,2.01,4.17,3.47c1.2,1.46,2.07,3.06,2.61,4.81,.54,1.75,.83,3.77,.85,6.05s-.22,4.53-.74,6.46c-.53,1.93-1.34,3.63-2.44,5.12s-2.35,2.67-3.77,3.55-3.38,1.6-5.9,2.16c-1.78,.41-4.12,.64-7.04,.67l-9.37,.12Zm6.6-29.33l.31,23.82c.62,.06,1.22,.08,1.82,.07,1.89-.02,3.64-.25,5.24-.67,1.18-.31,2.19-.73,3.04-1.28,.85-.55,1.67-1.3,2.45-2.27,.78-.97,1.4-2.14,1.85-3.52,.45-1.38,.67-2.87,.65-4.48-.02-1.54-.25-2.96-.69-4.25-.44-1.3-1.08-2.46-1.91-3.5-.84-1.03-1.77-1.83-2.8-2.39s-2.27-.97-3.72-1.23c-1.45-.26-3.53-.36-6.23-.31Z" style="fill:#fff;"/><g><rect x="40.15" y="67.76" width="10.17" height="1.83" transform="translate(112.9 21.95) rotate(88.74)" style="fill:#fff;"/><rect x="35.58" y="67.86" width="10.17" height="1.83" transform="translate(108.53 26.61) rotate(88.74)" style="fill:#fff;"/></g><g><rect x="41.21" y="29.16" width="10.17" height="1.83" transform="translate(75.34 -16.87) rotate(88.74)" style="fill:#fff;"/><rect x="36.64" y="29.26" width="10.17" height="1.83" transform="translate(70.98 -12.21) rotate(88.74)" style="fill:#fff;"/></g></g></svg>