<svg xmlns="http://www.w3.org/2000/svg" width="202" height="46" viewBox="0 0 202 46" fill="none"><g clip-path="url(#clip0_337_940)"><path d="M16.1956 45.3262C24.9161 45.3262 31.9854 35.3304 31.9854 23C31.9854 10.6696 24.9161 0.673828 16.1956 0.673828C7.47511 0.673828 0.405762 10.6696 0.405762 23C0.405762 35.3304 7.47511 45.3262 16.1956 45.3262Z" stroke="#FFFAFB" stroke-width="0.98" stroke-miterlimit="10"></path><path d="M16.1956 42.3599C23.301 42.3599 29.0611 33.6923 29.0611 23.0002C29.0611 12.308 23.301 3.64038 16.1956 3.64038C9.09015 3.64038 3.33008 12.308 3.33008 23.0002C3.33008 33.6923 9.09015 42.3599 16.1956 42.3599Z" stroke="#FFFAFB" stroke-width="0.98" stroke-miterlimit="10" stroke-linecap="round"></path><path d="M18.3579 0.87113C18.4822 0.830044 18.6147 0.797175 18.739 0.764306C19.6751 0.526007 20.6361 0.394531 21.6219 0.394531C30.4447 0.394531 37.6023 10.5099 37.6023 22.9919C37.6023 35.4738 30.453 45.5892 21.6219 45.5892C20.5698 45.5892 19.5426 45.4413 18.5484 45.1702C18.3993 45.1291 18.2502 45.088 18.1094 45.0387" stroke="#FFFAFB" stroke-width="0.98" stroke-miterlimit="10"></path><path d="M27.9922 7.9873H33.3687" stroke="#FFFAFB" stroke-width="0.98" stroke-miterlimit="10" stroke-linecap="round"></path><path d="M31.2148 15.6868H36.7487" stroke="#FFFAFB" stroke-width="0.98" stroke-miterlimit="10" stroke-linecap="round"></path><path d="M32.1348 23.3042H37.5941" stroke="#FFFAFB" stroke-width="0.98" stroke-miterlimit="10" stroke-linecap="round"></path><path d="M30.9829 30.9214H36.6742" stroke="#FFFAFB" stroke-width="0.98" stroke-miterlimit="10" stroke-linecap="round"></path><path d="M27.4541 38.3909H33.4436" stroke="#FFFAFB" stroke-width="0.98" stroke-miterlimit="10" stroke-linecap="round"></path><path d="M9.88287 31.4883L9.66748 14.5937L13.5611 14.5444C15.3422 14.5198 16.7588 14.5937 17.8026 14.7581C18.8547 14.9224 19.766 15.2182 20.5447 15.6291C21.3235 16.0482 22.0111 16.6152 22.5992 17.3219C23.1874 18.0368 23.6182 18.8174 23.8833 19.672C24.1484 20.5266 24.2892 21.5126 24.3058 22.6302C24.3224 23.7477 24.1981 24.8488 23.9413 25.7856C23.6845 26.7306 23.2786 27.5605 22.7401 28.2918C22.2016 29.0232 21.5803 29.5984 20.8844 30.0257C20.1885 30.453 19.2193 30.8063 17.9766 31.0857C17.0985 31.2829 15.947 31.398 14.5055 31.4144L9.88287 31.4719V31.4883ZM13.1386 17.1411L13.2877 28.7931C13.5942 28.8177 13.8925 28.8342 14.1824 28.826C15.1185 28.8177 15.9801 28.7027 16.7671 28.4973C17.347 28.3494 17.8524 28.1357 18.2666 27.8728C18.6891 27.6098 19.0867 27.24 19.4761 26.7634C19.8571 26.2951 20.1637 25.7199 20.3873 25.0378C20.611 24.364 20.7187 23.6327 20.7104 22.8438C20.7021 22.055 20.5862 21.3976 20.3708 20.7649C20.1554 20.1321 19.8406 19.5569 19.4264 19.0557C19.0122 18.5462 18.5482 18.16 18.0429 17.8888C17.5375 17.6177 16.9245 17.4122 16.2121 17.289C15.4996 17.1657 14.4724 17.1164 13.1386 17.1411Z" fill="white"></path><path d="M17.2899 34.8904L17.1797 29.9202L16.2769 29.9399L16.3871 34.9101L17.2899 34.8904Z" fill="white"></path><path d="M15.0453 34.9414L14.9351 29.9712L14.0323 29.9909L14.1425 34.9611L15.0453 34.9414Z" fill="white"></path><path d="M17.8275 16.0024L17.7173 11.0322L16.8145 11.0519L16.9247 16.0221L17.8275 16.0024Z" fill="white"></path><path d="M15.5746 16.0615L15.4644 11.0913L14.5616 11.111L14.6718 16.0812L15.5746 16.0615Z" fill="white"></path></g><path d="M60.988 14.52C63.8813 14.52 66.1493 15.3227 67.792 16.928C69.4533 18.5147 70.284 20.792 70.284 23.76C70.284 26.728 69.4533 29.0147 67.792 30.62C66.1493 32.2067 63.8813 33 60.988 33H55.024V14.52H60.988ZM61.212 30.9C63.3213 30.9 64.964 30.2747 66.14 29.024C67.3347 27.7547 67.932 26 67.932 23.76C67.932 21.52 67.3347 19.7747 66.14 18.524C64.964 17.2547 63.3213 16.62 61.212 16.62H57.264V30.9H61.212ZM86.155 19L79.575 35.352C79.2203 36.2667 78.8283 36.9853 78.399 37.508C77.9883 38.0493 77.5216 38.432 76.999 38.656C76.495 38.8987 75.907 39.02 75.235 39.02C74.6003 39.02 74.0123 38.9267 73.471 38.74C72.9483 38.572 72.4816 38.3387 72.071 38.04L72.687 36.08C73.0603 36.416 73.4523 36.6587 73.863 36.808C74.2923 36.976 74.7123 37.06 75.123 37.06C75.6083 37.06 76.0656 36.9107 76.495 36.612C76.9243 36.3133 77.3163 35.7067 77.671 34.792L78.399 32.972L76.999 29.64L72.547 19H75.095L78.595 28.128L79.463 30.62L80.471 27.848L83.747 19H86.155ZM89.0845 33V19H91.0445L91.2405 22.136L90.8765 21.828C91.1751 21.0813 91.5765 20.484 92.0805 20.036C92.5845 19.5693 93.1631 19.2333 93.8165 19.028C94.4885 18.8227 95.1791 18.72 95.8885 18.72C96.8965 18.72 97.8111 18.916 98.6325 19.308C99.4538 19.6813 100.107 20.26 100.592 21.044C101.096 21.828 101.348 22.8267 101.348 24.04V33H99.1085V24.824C99.1085 23.2747 98.7725 22.2013 98.1005 21.604C97.4471 20.988 96.6351 20.68 95.6645 20.68C94.9925 20.68 94.3205 20.8387 93.6485 21.156C92.9765 21.4733 92.4165 21.9867 91.9685 22.696C91.5391 23.4053 91.3245 24.3573 91.3245 25.552V33H89.0845ZM112.272 33.28C110.947 33.28 109.762 32.9907 108.716 32.412C107.69 31.8333 106.887 31.0027 106.308 29.92C105.73 28.8187 105.44 27.512 105.44 26C105.44 24.488 105.73 23.1907 106.308 22.108C106.887 21.0067 107.68 20.1667 108.688 19.588C109.696 19.0093 110.844 18.72 112.132 18.72C113.439 18.72 114.55 19 115.464 19.56C116.398 20.12 117.107 20.8853 117.592 21.856C118.078 22.808 118.32 23.8813 118.32 25.076C118.32 25.3933 118.311 25.6827 118.292 25.944C118.274 26.2053 118.246 26.4387 118.208 26.644H106.896V24.656H117.228L116.08 24.88C116.08 23.536 115.707 22.5 114.96 21.772C114.232 21.044 113.271 20.68 112.076 20.68C111.162 20.68 110.368 20.8947 109.696 21.324C109.043 21.7347 108.53 22.3413 108.156 23.144C107.802 23.928 107.624 24.88 107.624 26C107.624 27.1013 107.811 28.0533 108.184 28.856C108.558 29.6587 109.08 30.2747 109.752 30.704C110.443 31.1147 111.264 31.32 112.216 31.32C113.243 31.32 114.074 31.124 114.708 30.732C115.362 30.34 115.884 29.808 116.276 29.136L118.04 30.172C117.686 30.8067 117.228 31.3573 116.668 31.824C116.127 32.2907 115.483 32.6547 114.736 32.916C114.008 33.1587 113.187 33.28 112.272 33.28ZM128.801 14.52C131.694 14.52 133.962 15.3227 135.605 16.928C137.266 18.5147 138.097 20.792 138.097 23.76C138.097 26.728 137.266 29.0147 135.605 30.62C133.962 32.2067 131.694 33 128.801 33H122.837V14.52H128.801ZM129.025 30.9C131.134 30.9 132.777 30.2747 133.952 29.024C135.147 27.7547 135.745 26 135.745 23.76C135.745 21.52 135.147 19.7747 133.952 18.524C132.777 17.2547 131.134 16.62 129.025 16.62H125.077V30.9H129.025ZM148.392 18.72C149.718 18.72 150.884 19.0093 151.892 19.588C152.919 20.1667 153.722 21.0067 154.3 22.108C154.879 23.1907 155.168 24.488 155.168 26C155.168 27.512 154.879 28.8187 154.3 29.92C153.722 31.0027 152.919 31.8333 151.892 32.412C150.884 32.9907 149.718 33.28 148.392 33.28C147.086 33.28 145.919 32.9907 144.892 32.412C143.866 31.8333 143.063 31.0027 142.484 29.92C141.906 28.8187 141.616 27.512 141.616 26C141.616 24.488 141.906 23.1907 142.484 22.108C143.063 21.0067 143.866 20.1667 144.892 19.588C145.919 19.0093 147.086 18.72 148.392 18.72ZM148.392 20.652C147.44 20.652 146.628 20.8667 145.956 21.296C145.284 21.7253 144.762 22.3413 144.388 23.144C144.034 23.928 143.856 24.88 143.856 26C143.856 27.1013 144.034 28.0533 144.388 28.856C144.762 29.6587 145.284 30.2747 145.956 30.704C146.628 31.1333 147.44 31.348 148.392 31.348C149.344 31.348 150.156 31.1333 150.828 30.704C151.5 30.2747 152.014 29.6587 152.368 28.856C152.742 28.0533 152.928 27.1013 152.928 26C152.928 24.88 152.742 23.928 152.368 23.144C152.014 22.3413 151.5 21.7253 150.828 21.296C150.156 20.8667 149.344 20.652 148.392 20.652ZM161.513 12.56V29.444C161.513 30.1533 161.644 30.648 161.905 30.928C162.167 31.1893 162.587 31.32 163.165 31.32C163.539 31.32 163.847 31.292 164.089 31.236C164.332 31.18 164.659 31.0773 165.069 30.928L164.705 32.888C164.407 33.0187 164.08 33.112 163.725 33.168C163.371 33.2427 163.007 33.28 162.633 33.28C161.495 33.28 160.645 32.972 160.085 32.356C159.544 31.74 159.273 30.7973 159.273 29.528V12.56H161.513ZM170.072 12.56V29.444C170.072 30.1533 170.203 30.648 170.464 30.928C170.725 31.1893 171.145 31.32 171.724 31.32C172.097 31.32 172.405 31.292 172.648 31.236C172.891 31.18 173.217 31.0773 173.628 30.928L173.264 32.888C172.965 33.0187 172.639 33.112 172.284 33.168C171.929 33.2427 171.565 33.28 171.192 33.28C170.053 33.28 169.204 32.972 168.644 32.356C168.103 31.74 167.832 30.7973 167.832 29.528V12.56H170.072ZM184.678 23.956C184.678 22.9107 184.398 22.108 183.838 21.548C183.278 20.9693 182.485 20.68 181.458 20.68C180.488 20.68 179.666 20.8947 178.994 21.324C178.322 21.7347 177.828 22.4067 177.51 23.34L175.69 22.22C176.064 21.1747 176.754 20.3347 177.762 19.7C178.77 19.0467 180.021 18.72 181.514 18.72C182.522 18.72 183.437 18.8973 184.258 19.252C185.08 19.588 185.724 20.1107 186.19 20.82C186.676 21.5107 186.918 22.4067 186.918 23.508V30.284C186.918 30.956 187.273 31.292 187.982 31.292C188.337 31.292 188.682 31.2453 189.018 31.152L188.906 32.916C188.533 33.1027 188.048 33.196 187.45 33.196C186.909 33.196 186.424 33.0933 185.994 32.888C185.565 32.6827 185.229 32.3747 184.986 31.964C184.744 31.5347 184.622 31.0027 184.622 30.368V30.088L185.182 30.172C184.958 30.9 184.576 31.4973 184.034 31.964C183.493 32.412 182.886 32.748 182.214 32.972C181.542 33.1773 180.88 33.28 180.226 33.28C179.405 33.28 178.64 33.14 177.93 32.86C177.221 32.58 176.652 32.16 176.222 31.6C175.812 31.0213 175.606 30.312 175.606 29.472C175.606 28.4267 175.952 27.568 176.642 26.896C177.352 26.2053 178.332 25.7387 179.582 25.496L185.126 24.404V26.252L180.618 27.176C179.704 27.3627 179.022 27.624 178.574 27.96C178.126 28.296 177.902 28.7627 177.902 29.36C177.902 29.9387 178.126 30.4147 178.574 30.788C179.041 31.1427 179.694 31.32 180.534 31.32C181.076 31.32 181.589 31.2547 182.074 31.124C182.578 30.9747 183.026 30.76 183.418 30.48C183.81 30.1813 184.118 29.8173 184.342 29.388C184.566 28.94 184.678 28.4173 184.678 27.82V23.956ZM192.362 33V19H194.182L194.49 21.296C194.882 20.4373 195.451 19.7933 196.198 19.364C196.963 18.9347 197.887 18.72 198.97 18.72C199.212 18.72 199.474 18.7387 199.754 18.776C200.052 18.8133 200.304 18.888 200.51 19L200.118 21.044C199.912 20.9693 199.688 20.9133 199.446 20.876C199.203 20.8387 198.858 20.82 198.41 20.82C197.831 20.82 197.243 20.988 196.646 21.324C196.067 21.66 195.582 22.1733 195.19 22.864C194.798 23.536 194.602 24.3947 194.602 25.44V33H192.362Z" fill="white"></path><defs><clipPath id="clip0_337_940"><rect width="38" height="46" fill="white"></rect></clipPath></defs></svg>